<?xml version="1.0"?>
<svg width="413" height="228.00000000000003" xmlns="http://www.w3.org/2000/svg" xmlns:svg="http://www.w3.org/2000/svg" xmlns:xlink="http://www.w3.org/1999/xlink">
 <g>
  <title>Layer 1</title>
  <g opacity="0.5" id="svg_1" fill-rule="evenodd" fill="none">
   <path id="svg_2" d="m113.006561,0.664532l96.194,54.509998l-66.981995,54.512001l-69.117004,-39.904999l39.904999,-69.117001z" fill="#F04141"/>
   <circle id="svg_3" r="57.5" cy="170.394531" cx="206.601563" fill="#10DC60"/>
   <path id="svg_4" d="m259.639557,44.407532l84.416992,15.391998l-69.024994,69.024994l-15.391998,-84.416992z" fill="#3880FF"/>
   <path id="svg_5" d="m319.726563,141.451538l46.332001,-26.750008l46.332001,26.750008l0,53.499985l-46.332001,26.75l-46.332001,-26.75l0,-53.499985z" fill="#FFCE00"/>
   <circle id="svg_6" r="38.5" cy="44.394531" cx="350.601563" fill="#7044FF"/>
   <rect id="svg_7" rx="5.098" height="89.884" width="10.196" y="27.838531" x="194.473563" transform="rotate(-60 199.572 72.7805)" fill="#11D3EA"/>
   <path id="svg_8" fill="#7044FF" d="m25.712563,109.14753l84.860001,8.107002c5.498001,0.525002 9.529999,5.406998 9.003998,10.904999a10,10 0 0 1 -0.056999,0.477005l-12.359993,85.67099a10.002,10.002 0 0 1 -11.63401,8.419998l-86.350994,-15.225998c-5.439999,-0.959 -9.07,-6.145004 -8.112,-11.584l13.850998,-78.551003a10,10 0 0 1 10.799002,-8.219002l-0.000002,0.000008z"/>
   <circle id="svg_9" r="20.5" cy="141.394531" cx="324.601563" fill="#0CD1E8"/>
  </g>
  <use x="129.577832" y="45.692538" transform="matrix(0.909271 0 0 0.909271 -97.176 -30.2437)" xlink:href="#svg_11" id="svg_12"/>
  <g id="svg_13"/>
 </g>
 <defs>
  <symbol viewBox="0 0 512 512" y="0px" x="0px" id="svg_11" xmlns:xlink="http://www.w3.org/1999/xlink" xmlns="http://www.w3.org/2000/svg">
   <g>
    <rect fill="#828282" height="68.267" width="34.133" y="166.507" x="238.933"/>
    <path fill="#828282" d="m469.333008,81.172997l0,-34.132996c0,-9.429001 -7.636993,-17.066999 -17.066986,-17.066999l-85.333008,0c-9.429016,0 -17.067017,7.636999 -17.067017,17.066999l0,34.132996l-34.132996,0l0,-34.132996c0,-9.429001 -7.636993,-17.066999 -17.066986,-17.066999l-85.333008,0c-9.429001,0 -17.067001,7.636999 -17.067001,17.066999l0,34.132996l-34.132996,0l0,-34.132996c0,-9.429001 -7.636993,-17.066999 -17.067001,-17.066999l-85.333008,0c-9.429001,0 -17.067001,7.636999 -17.067001,17.066999l0,34.132996l-34.133,0l0,34.133003l34.133,0l0,34.132996c0,9.429001 7.636997,17.067001 17.066998,17.067001l85.332996,0c9.429001,0 17.067001,-7.636993 17.067001,-17.067001l0,-34.132996l34.132996,0l0,34.132996c0,9.429001 7.637009,17.067001 17.067001,17.067001l85.332993,0c9.429016,0 17.067017,-7.636993 17.067017,-17.067001l0,-34.132996l34.132996,0l0,34.132996c0,9.429001 7.636993,17.067001 17.066986,17.067001l85.333008,0c9.429016,0 17.067017,-7.636993 17.067017,-17.067001l0,-34.132996l34.132996,0l0,-34.133003c0.001007,0 -34.132996,0 -34.132996,0zm-341.333008,51.200005l-51.199997,0l0,-17.067001l8.532997,0l0,-34.133003l-8.532997,0l0,-17.065994l51.199997,0l0,17.067001l-8.532997,0l0,34.132996l8.532997,0l0,17.066002zm153.600006,0l-51.199997,0l0,-17.067001l8.53299,0l0,-34.133003l-8.533005,0l0,-17.065994l51.200012,0l0,17.067001l-8.53302,0l0,34.132996l8.53302,0l0,17.066002zm153.600006,0l-51.200012,0l0,-17.067001l8.53299,0l0,-34.133003l-8.53299,0l0,-17.065994l51.200012,0l0,17.067001l-8.53302,0l0,34.132996l8.53302,0l0,17.066002z"/>
   </g>
   <path fill="#FFCD3A" d="m187.733002,234.772995c-9.429001,0 -17.067001,7.636993 -17.067001,17.067001l0,128c0,9.428986 7.637009,17.066986 17.067001,17.066986l136.53299,0c9.429016,0 17.067017,-7.636993 17.067017,-17.066986l0,-128c0,-9.429001 -7.636993,-17.067001 -17.067017,-17.067001l-136.53299,0l0,0zm93.867004,59.733994c-0.009003,7.244995 -3.11499,14.140015 -8.53299,18.953003l0,49.313995l-34.133011,0l0,-49.313995c-10.539001,-9.429016 -11.442993,-25.609009 -2.013992,-36.147003s25.608978,-11.442993 36.147003,-2.014008c5.460999,4.889008 8.566986,11.886017 8.53299,19.208008z"/>
   <path fill="#F06E17" d="m230.399994,294.506989c0.009003,7.244995 3.115005,14.140015 8.533005,18.953003l0,49.313995l34.13298,0l0,-49.313995c10.539001,-9.429016 11.443024,-25.609009 2.014008,-36.147003c-9.428986,-10.539001 -25.608994,-11.442993 -36.146988,-2.014008c-5.460999,4.889008 -8.567001,11.886017 -8.533005,19.208008z"/>
   <path d="m503.46701,72.639999l-25.600006,0l0,-25.600002c0,-14.139999 -11.459991,-25.599998 -25.600006,-25.599998l-85.332977,0c-14.140015,0 -25.600006,11.459999 -25.600006,25.599998l0,25.600002l-17.067017,0l0,-25.600002c0,-14.139999 -11.459991,-25.599998 -25.599976,-25.599998l-85.333008,0c-14.139999,0 -25.600006,11.459999 -25.600006,25.599998l0,25.600002l-17.067001,0l0,-25.600002c0,-14.139999 -11.459991,-25.599998 -25.599991,-25.599998l-85.334015,0c-14.139999,0 -25.600002,11.459999 -25.600002,25.599998l0,25.600002l-25.599998,0c-4.710001,0 -8.533001,3.822998 -8.533001,8.532997l0,34.133003c0,4.709999 3.823,8.532997 8.533,8.532997l25.599999,0l0,25.599998c0,14.139999 11.459999,25.600006 25.600002,25.600006l85.332993,0c14.139999,0 25.600006,-11.460007 25.600006,-25.600006l0,-25.599998l17.067001,0l0,25.599998c0,14.139999 11.460007,25.600006 25.600006,25.600006l17.066986,0l0,51.199997l-42.667007,0c-14.139999,0 -25.599991,11.459991 -25.599991,25.600006l0,127.999985c0,14.140015 11.459991,25.600006 25.599991,25.600006l136.533005,0c14.140015,0 25.600006,-11.459991 25.600006,-25.600006l0,-127.999985c0,-14.140015 -11.459991,-25.600006 -25.600006,-25.600006l-42.665985,0l0,-51.199997l17.066986,0c14.140015,0 25.600006,-11.460007 25.600006,-25.600006l0,-25.599998l17.067017,0l0,25.599998c0,14.139999 11.459991,25.600006 25.600006,25.600006l85.332977,0c14.140015,0 25.600006,-11.460007 25.600006,-25.600006l0,-25.599998l25.600006,0c4.709991,0 8.53299,-3.822998 8.53299,-8.532997l0,-34.133003c0,-4.709999 -3.822998,-8.532997 -8.53299,-8.532997zm-145.067017,-25.599998c0,-4.709999 3.822998,-8.533001 8.53299,-8.533001l85.333008,0c4.709991,0 8.53299,3.823002 8.53299,8.533001l0,25.599998l-17.066986,0l0,-8.532997c0,-4.710003 -3.822998,-8.533001 -8.53299,-8.533001l-51.199005,0c-4.709991,0 -8.53299,3.822998 -8.53299,8.533001l0,8.532997l-17.067017,0l0,-25.599998zm68.266998,76.799995l-34.132996,0c4.709991,0 8.53299,-3.822998 8.53299,-8.532997l0,-34.134003c0,-4.709999 -3.822998,-8.532997 -8.53299,-8.532997l34.132996,0c-4.709991,0 -8.53299,3.822998 -8.53299,8.532997l0,34.133003c-0.001007,4.720001 3.821991,8.533997 8.53299,8.533997zm-110.93399,-17.066994l-34.132996,0l0,-17.066002l102.399994,0l0,17.067001l-68.266998,0l0,-0.000999zm-153.600006,0l-34.132996,0l0,-17.066002l102.400009,0l0,17.067001l-68.267014,0l0,-0.000999zm-76.799995,-34.133003l34.133003,0c-4.710007,0 -8.533005,3.822998 -8.533005,8.532997l0,34.133003c0,4.709999 3.822998,8.532997 8.533005,8.532997l-34.133003,0c4.709999,0 8.532997,-3.822998 8.532997,-8.532997l0,-34.133003c0.000999,-4.709999 -3.821999,-8.532997 -8.532997,-8.532997zm153.599998,0l34.133011,0c-4.710022,0 -8.53302,3.822998 -8.53302,8.532997l0,34.133003c0,4.709999 3.822998,8.532997 8.53302,8.532997l-34.133011,0c4.710007,0 8.533005,-3.822998 8.533005,-8.532997l0,-34.133003c0.000992,-4.709999 -3.822006,-8.532997 -8.533005,-8.532997zm-34.132996,-25.599998c0,-4.709999 3.822998,-8.533001 8.533005,-8.533001l85.333008,0c4.709991,0 8.53299,3.823002 8.53299,8.533001l0,25.599998l-17.066986,0l0,-8.532997c0,-4.710003 -3.823029,-8.533001 -8.53302,-8.533001l-51.199997,0c-4.710007,0 -8.533005,3.822998 -8.533005,8.533001l0,8.532997l-17.065994,0l0,-25.599998zm-153.600002,0c0,-4.709999 3.823002,-8.533001 8.533001,-8.533001l85.332993,0c4.710007,0 8.533005,3.823002 8.533005,8.533001l0,25.599998l-17.067001,0l0,-8.532997c0,-4.710003 -3.822998,-8.533001 -8.532997,-8.533001l-51.198997,0c-4.709999,0 -8.532997,3.822998 -8.532997,8.533001l0,8.532997l-17.067005,0l0,-25.599998zm-34.133001,42.667l59.733004,0l0,17.067001l-59.733004,0l0,-17.067001zm136.533007,59.733002c0,4.710007 -3.822998,8.533005 -8.533005,8.533005l-85.334,0c-4.709999,0 -8.533001,-3.822998 -8.533001,-8.533005l0,-25.599998l17.066998,0l0,8.532997c0,4.710007 3.823006,8.533005 8.533005,8.533005l51.199997,0c4.710007,0 8.533005,-3.822998 8.533005,-8.533005l0,-8.532997l17.067001,0l0,25.599998zm179.199982,102.399994l0,128c0,4.709991 -3.822998,8.53299 -8.53299,8.53299l-136.533997,0c-4.710007,0 -8.533005,-3.822998 -8.533005,-8.53299l0,-128c0,-4.710007 3.822998,-8.533005 8.533005,-8.533005l136.53299,0c4.710999,0.000015 8.533997,3.823013 8.533997,8.533005zm-68.266998,-25.599991l-17.067001,0l0,-51.199997l17.067001,0l0,51.199997zm42.667023,-76.800003c0,4.710007 -3.822998,8.533005 -8.53299,8.533005l-85.333008,0c-4.710007,0 -8.533005,-3.822998 -8.533005,-8.533005l0,-25.599998l17.067001,0l0,8.532997c0,4.710007 3.822998,8.533005 8.533005,8.533005l51.199997,0c4.709991,0 8.53299,-3.822998 8.53299,-8.533005l0,-8.532997l17.06601,0l0,25.599998zm153.599976,0c0,4.710007 -3.822998,8.533005 -8.53299,8.533005l-85.333008,0c-4.709991,0 -8.53299,-3.822998 -8.53299,-8.533005l0,-25.599998l17.066986,0l0,8.532997c0,4.710007 3.822998,8.533005 8.53299,8.533005l51.200012,0c4.709991,0 8.53299,-3.822998 8.53299,-8.533005l0,-8.532997l17.06601,0l0,25.599998zm34.133026,-42.667l-59.733002,0l0,-17.066002l59.733002,0l0,17.066002z"/>
   <path d="m230.399994,362.77301c0,4.709991 3.822998,8.53299 8.533005,8.53299l34.13298,0c4.710022,0 8.53302,-3.822998 8.53302,-8.53299l0,-45.824005c12.46698,-14.139984 11.118988,-35.712006 -3.020996,-48.178986s-35.712006,-11.119019 -48.179016,3.020996c-11.375,12.901978 -11.375,32.255981 0,45.15799l0,45.824005l0.001007,0zm25.600006,-85.333008c9.428986,0 17.066986,7.636993 17.066986,17.066986c-0.008972,4.830017 -2.090973,9.429016 -5.71698,12.621002c-1.791992,1.621002 -2.81601,3.925018 -2.81601,6.339996l0,40.772003l-17.067001,0l0,-40.772003c0,-2.414978 -1.024002,-4.718994 -2.815994,-6.339996c-3.626999,-3.190979 -5.709,-7.790985 -5.716995,-12.621002c-0.001007,-9.42099 7.636993,-17.066986 17.065994,-17.066986z"/>
   <path d="m418.132996,309.747009l0,1.834991c0,4.89801 -0.221985,9.830017 -0.657013,14.669006l16.998016,1.527008c0.477997,-5.34201 0.725006,-10.795013 0.725006,-16.222015l0,-2.048004l-17.06601,0.239014z"/>
   <path d="m355.959991,439.240997l10.529999,13.431c4.79599,-3.763 9.386993,-7.799011 13.781006,-11.946991l-11.835999,-12.305023c-3.967987,3.823029 -8.131989,7.433014 -12.475006,10.821014z"/>
   <path d="m411.196014,358.652008l16.333008,4.949005c1.765991,-5.837006 3.225983,-11.75 4.394989,-17.731995l-16.759003,-3.251007c-1.050995,5.410004 -2.373016,10.759979 -3.968994,16.033997z"/>
   <path d="m328.046997,456.862l7.578003,15.28299c5.470001,-2.704987 10.786011,-5.691986 15.949005,-8.942993l-9.131012,-14.437988c-4.660004,2.951996 -9.463989,5.656982 -14.395996,8.097992z"/>
   <path d="m398.429993,389.098999l14.984985,8.165985c2.917999,-5.349976 5.564026,-10.845978 7.919006,-16.468994l-15.734985,-6.595978c-2.134003,5.084991 -4.523987,10.059998 -7.169006,14.898987z"/>
   <path d="m387.661011,216.929993c3.21701,4.479996 6.20401,9.113998 8.959991,13.891998l14.796997,-8.533005c-3.037994,-5.281998 -6.348999,-10.410995 -9.906982,-15.360001l-13.850006,10.001007z"/>
   <path d="m379.733002,416.32901l13.013,11.033997c3.941986,-4.641998 7.645996,-9.488983 11.092987,-14.506989l-14.070984,-9.651001c-3.123016,4.547974 -6.468018,8.924988 -10.035004,13.123993z"/>
   <path d="m434.065002,291.315002c-0.683014,-6.05899 -1.673004,-12.075012 -2.970001,-18.031006l-16.674011,3.627014c1.169006,5.384979 2.065002,10.828979 2.679016,16.306976l16.964996,-1.902985z"/>
   <path d="m404.130005,245.559006c2.252991,5.035004 4.240997,10.180008 5.972992,15.419998l16.213013,-5.332993c-1.903015,-5.794006 -4.105011,-11.494003 -6.588013,-17.067001l-15.597992,6.979996z"/>
   <path d="m228.966003,488.751007c5.973007,0.904999 12.134003,1.51001 18.166992,1.80899l0.853012,-17.066986c-5.503998,-0.27301 -10.999008,-0.819 -16.452011,-1.647003l-2.567993,16.904999z"/>
   <path d="m77.875,291.826996l16.973,1.842987c0.606003,-5.477997 1.485001,-10.922974 2.637001,-16.315979l-16.682999,-3.584015c-1.279999,5.964996 -2.261002,11.990021 -2.927002,18.057007z"/>
   <path d="m85.546997,256.106995l16.212997,5.282013c1.697998,-5.239014 3.668999,-10.394012 5.904999,-15.428009l-15.572998,-6.921005c-2.474998,5.581009 -4.658997,11.27301 -6.544998,17.067001z"/>
   <path d="m96.93,343.087006l-16.750999,3.285004c1.185997,5.981995 2.662003,11.903992 4.445999,17.731995l16.323997,-5.001007c-1.612,-5.264008 -2.951996,-10.605988 -4.018997,-16.015991z"/>
   <path d="m106.589996,374.643005l-15.718002,6.647003c2.372002,5.605988 5.026001,11.092987 7.962006,16.434998l14.958992,-8.217987c-2.654991,-4.82901 -5.052994,-9.786011 -7.202995,-14.864014z"/>
   <path d="m297.131012,468.450012l4.30899,16.511993c5.904999,-1.53598 11.725006,-3.378998 17.434021,-5.520996l-5.973022,-15.983002c-5.171997,1.928986 -10.428009,3.592987 -15.769989,4.992004z"/>
   <path d="m93.866997,311.572998l0,-1.381989l-17.066994,-0.154022l0,1.536011c0,5.554993 0.255997,11.186981 0.767998,16.733978l16.998001,-1.586975c-0.469002,-5.009003 -0.699005,-10.102997 -0.699005,-15.147003z"/>
   <path d="m124.092003,217.289001l-13.875,-9.949997c-3.550003,4.94899 -6.844002,10.078003 -9.873001,15.360001l14.821999,8.464996c2.738998,-4.770004 5.717003,-9.404007 8.926003,-13.875z"/>
   <path d="m122.470001,403.571014l-14.037003,9.701996c3.447006,5.026001 7.151001,9.86499 11.093002,14.506989l12.979004,-11.092987c-3.557999,-4.197998 -6.911003,-8.576019 -10.035004,-13.115997z"/>
   <path d="m160.878998,463.475006c5.162994,3.234009 10.487,6.212006 15.957001,8.908997l7.542999,-15.299988c-4.940994,-2.44101 -9.753998,-5.128998 -14.421005,-8.063995l-9.078995,14.454987z"/>
   <path d="m264.53299,473.493011l0.852997,17.066986c6.084015,-0.315979 12.143005,-0.938995 18.166992,-1.868988l-2.559998,-16.869995c-5.451996,0.844971 -10.946991,1.398987 -16.459991,1.671997z"/>
   <path d="m193.604004,479.595001c5.716995,2.132996 11.546005,3.967987 17.451004,5.494995l4.266998,-16.537994c-5.333008,-1.373993 -10.581009,-3.020996 -15.744003,-4.94101l-5.973999,15.984009z"/>
   <path d="m132.095993,441.049988c4.403,4.214996 9.011002,8.200989 13.815002,11.946991l10.505005,-13.414001c-4.352005,-3.395996 -8.533005,-7.005981 -12.518005,-10.819977l-11.802002,12.286987z"/>
   <g/>
   <g/>
   <g/>
   <g/>
   <g/>
   <g/>
   <g/>
   <g/>
   <g/>
   <g/>
   <g/>
   <g/>
   <g/>
   <g/>
   <g/>
  </symbol>
 </defs>
</svg>